<?xml version="1.0" standalone="no"?>
<!DOCTYPE svg PUBLIC "-//W3C//DTD SVG 20010904//EN"
 "http://www.w3.org/TR/2001/REC-SVG-20010904/DTD/svg10.dtd">
<svg version="1.0" xmlns="http://www.w3.org/2000/svg"
 width="512.000000pt" height="512.000000pt" viewBox="0 0 512.000000 512.000000"
 preserveAspectRatio="xMidYMid meet">

<g transform="translate(0.000000,512.000000) scale(0.100000,-0.100000)"
fill="#000000" stroke="none">
<path d="M440 5109 c-132 -19 -256 -93 -334 -199 -55 -74 -84 -149 -97 -249
-6 -49 -9 -810 -7 -2156 l3 -2080 22 -65 c55 -162 177 -282 337 -333 l71 -22
2125 0 2125 0 71 22 c163 52 285 174 337 338 l22 70 0 2125 0 2125 -22 71
c-51 160 -171 282 -333 337 l-65 22 -2100 1 c-1155 1 -2125 -2 -2155 -7z
m1240 -2077 c327 -669 662 -1355 745 -1525 l151 -307 595 1222 c327 673 660
1358 740 1523 l146 300 76 3 76 3 -113 -233 c-1024 -2111 -1531 -3147 -1537
-3141 -4 5 -91 179 -192 388 -102 209 -469 964 -816 1678 -347 714 -631 1300
-631 1303 0 2 37 4 83 4 l82 -1 595 -1217z"/>
</g>
</svg>
